<?xml version="1.0" encoding="UTF-8" standalone="no"?>
<!-- Created with Inkscape (http://www.inkscape.org/) -->

<svg
   xmlns:dc="http://purl.org/dc/elements/1.1/"
   xmlns:cc="http://creativecommons.org/ns#"
   xmlns:rdf="http://www.w3.org/1999/02/22-rdf-syntax-ns#"
   xmlns:svg="http://www.w3.org/2000/svg"
   xmlns="http://www.w3.org/2000/svg"
   xmlns:sodipodi="http://sodipodi.sourceforge.net/DTD/sodipodi-0.dtd"
   xmlns:inkscape="http://www.inkscape.org/namespaces/inkscape"
   id="svg2"
   version="1.1"
   inkscape:version="0.91 r13725"
   xml:space="preserve"
   width="200"
   height="52"
   viewBox="0 0 200 52"
   sodipodi:docname="duke_wordmark_small.svg"><metadata
     id="metadata8"><rdf:RDF><cc:Work
         rdf:about=""><dc:format>image/svg+xml</dc:format><dc:type
           rdf:resource="http://purl.org/dc/dcmitype/StillImage" /><dc:title></dc:title></cc:Work></rdf:RDF></metadata><defs
     id="defs6" /><sodipodi:namedview
     pagecolor="#ffffff"
     bordercolor="#666666"
     borderopacity="1"
     objecttolerance="10"
     gridtolerance="10"
     guidetolerance="10"
     inkscape:pageopacity="0"
     inkscape:pageshadow="2"
     inkscape:window-width="1855"
     inkscape:window-height="1056"
     id="namedview4"
     showgrid="false"
     inkscape:zoom="3.248172"
     inkscape:cx="109.25141"
     inkscape:cy="52.14086"
     inkscape:window-x="65"
     inkscape:window-y="24"
     inkscape:window-maximized="1"
     inkscape:current-layer="g10" /><g
     id="g10"
     inkscape:groupmode="layer"
     inkscape:label="ink_ext_XXXXXX"
     transform="matrix(1.25,0,0,-1.25,0,52)"><path
       inkscape:connector-curvature="0"
       id="path14"
       style="fill:#ffffff;fill-opacity:1;fill-rule:nonzero;stroke:none"
       d="m 11.099204,8.6620882 c 0,-1.0474321 0.222029,-1.953964 0.665711,-2.718388 0.443681,-0.765556 1.029395,-1.3994189 1.757594,-1.9028716 0.727217,-0.5032262 1.555035,-0.8746839 2.485717,-1.1164107 0.92955,-0.2423304 1.877288,-0.3626278 2.847213,-0.3626278 0.807744,0 1.756991,0.1202974 2.848648,0.3626278 1.089845,0.2417268 2.221878,0.6131845 3.393155,1.1164107 1.171503,0.5034527 2.342779,1.1770877 3.514584,2.023169 1.172409,0.8460813 2.222784,1.8625712 3.152334,3.0496962 0.929172,1.1880302 1.676465,2.5780162 2.241047,4.1679182 0.566017,1.589525 0.849025,3.411418 0.849025,5.466209 0,2.051771 -0.283008,3.92438 -0.849025,5.615939 -0.564582,1.689747 -1.331874,3.20003 -2.302403,4.529565 -0.969851,1.328402 -2.09162,2.476284 -3.363647,3.442285 -1.272103,0.966756 -2.595751,1.771254 -3.968605,2.416513 -1.373759,0.642994 -2.768499,1.116184 -4.181729,1.418059 -1.414437,0.30263 -2.748425,0.452813 -3.999849,0.452813 -1.252934,0 -2.222784,-0.06038 -2.908796,-0.179616 -0.686314,-0.121504 -1.191879,-0.273197 -1.514735,-0.454322 -0.324214,-0.181125 -0.51583,-0.392438 -0.57628,-0.633938 -0.06045,-0.241501 -0.08996,-0.462624 -0.08996,-0.663372 l 0,-26.0296588 z M 7.4885174,1.1063733 c -0.8864646,0 -1.8342477,-0.039244 -2.8409947,-0.1164484 C 3.642255,0.9129467 2.7770197,0.8740802 2.0526924,0.8740802 c -0.1615487,0 -0.3826498,0.019169 -0.664775,0.057432 -0.2824195,0.038338 -0.4224444,0.2131995 -0.4224444,0.5242067 0,0.2408211 0.1400249,0.4840572 0.4224444,0.7248783 0.2821252,0.2417267 0.885876,0.4430776 1.8121354,0.6037508 0.3219275,0.039772 0.6441418,0.1114675 0.9669447,0.2122938 0.3213388,0.1002227 0.6125957,0.2824045 0.8740877,0.543904 0.2623675,0.2623298 0.472269,0.6337874 0.6338176,1.1187503 0.1606657,0.4825478 0.2417343,1.1674276 0.2417343,2.053281 l 0,28.4055689 c 0,0.281499 -0.1415041,0.492812 -0.4230331,0.633939 -0.2815365,0.141127 -0.6338251,0.2415 -1.0562696,0.301875 -0.4221576,0.05962 -0.8643522,0.101883 -1.3286668,0.12075 -0.4628354,0.02113 -0.8961926,0.05056 -1.2971209,0.09132 -0.6854081,0.08 -1.15856455,0.151692 -1.41946263,0.211312 C 0.12971209,36.537716 0,36.730161 0,37.051658 c 0,0.242255 0.08991434,0.433192 0.27269009,0.573564 0.17982793,0.141126 0.39149466,0.2415 0.63234746,0.303384 0.24173425,0.06038 0.49231345,0.100374 0.75468845,0.120751 0.2623751,0.01962 0.4937927,0.03019 0.6957247,0.03019 l 5.4965549,0 c 1.4911135,0 2.9921894,0.05736 4.5045094,0.174333 1.510886,0.116977 3.233991,0.175088 5.16939,0.175088 3.185313,0 6.167163,-0.403004 8.949549,-1.209011 2.779668,-0.804498 5.208181,-2.052753 7.285083,-3.7425 2.075394,-1.692012 3.717445,-3.855704 4.927588,-6.492057 1.208634,-2.637863 1.814498,-5.768688 1.814498,-9.392325 0,-2.254632 -0.494397,-4.388966 -1.482888,-6.401042 C 38.03215,9.178597 36.692276,7.4274933 35.000189,5.9372099 33.307422,4.447002 31.322516,3.2693106 29.043734,2.4040602 26.765481,1.5388099 24.337799,1.1063733 21.758651,1.1063733 l -14.2701336,0" /><path
       inkscape:connector-curvature="0"
       id="path16"
       style="fill:#ffffff;fill-opacity:1;fill-rule:nonzero;stroke:none"
       d="m 52.788423,0 c -1.408249,0 -2.586921,0.20187917 -3.534055,0.6042791 -0.945474,0.4030036 -1.689823,0.9861514 -2.234633,1.7511792 -0.543904,0.7664616 -0.926229,1.6723897 -1.147353,2.7189163 -0.222557,1.0471302 -0.33161,2.2159918 -0.33161,3.5057545 0,0.9257009 0.0088,1.9515489 0.02853,3.0806389 0.01864,1.127655 0.02981,2.255235 0.02981,3.384325 0,1.167427 0.0085,2.305347 0.0286,3.413229 0.01917,1.106977 0.02943,2.103996 0.02943,2.990755 0,0.442776 -0.201879,0.725181 -0.604279,0.84578 -0.401872,0.120222 -0.785631,0.221048 -1.147353,0.301573 -0.723746,0.201879 -1.208105,0.352289 -1.449304,0.453945 -0.24233,0.09969 -0.361722,0.250633 -0.361722,0.452512 0,0.28248 0.140976,0.442851 0.423078,0.483529 0.281499,0.03977 0.644127,0.06038 1.086299,0.06038 0.442247,0 0.87559,-0.0197 1.297159,-0.05894 0.422474,-0.03834 0.856948,-0.05751 1.302441,-0.05751 0.445719,0 0.892344,0.01917 1.337459,0.05751 0.446096,0.03924 0.892721,0.05894 1.337836,0.05894 0.405042,0 0.658013,-0.08015 0.75967,-0.241727 0.101732,-0.162107 0.151843,-0.463379 0.151843,-0.905022 0,-2.698314 -0.01917,-5.38508 -0.05751,-8.062791 -0.03977,-2.676804 -0.05894,-5.364778 -0.05894,-8.0612803 0,-1.2484812 0.421569,-2.2042187 1.266141,-2.86842 0.843138,-0.6642014 2.009131,-0.9964153 3.496396,-0.9964153 1.6862,0 3.002528,0.1606732 3.947323,0.4834535 0.94336,0.322252 1.658277,0.7340855 2.138787,1.236708 0.482019,0.5035282 0.79446,1.0774688 0.934531,1.7215954 0.139994,0.6441267 0.210784,1.2685559 0.210784,1.8720049 0,2.1756158 0.01917,4.3282898 0.05894,6.4629258 0.03834,2.131995 0.05894,4.286404 0.05894,6.460209 0,0.16007 -0.03094,0.301574 -0.09139,0.422475 -0.06038,0.120825 -0.200446,0.222557 -0.421494,0.302177 -0.222633,0.08015 -0.535074,0.170937 -0.937474,0.271763 -0.400966,0.100223 -0.965473,0.251463 -1.689219,0.453417 -0.241727,0.08053 -0.594015,0.201049 -1.056866,0.361722 -0.46285,0.161579 -0.694238,0.362025 -0.694238,0.603751 0,0.201955 0.139995,0.331686 0.421569,0.392061 0.283008,0.06045 0.585186,0.09139 0.906456,0.09139 0.523301,0 1.036263,-0.0197 1.540395,-0.05894 0.502623,-0.03834 1.015584,-0.05751 1.53881,-0.05751 0.604355,0 1.201313,0.01917 1.786499,0.05751 0.586619,0.03924 1.182144,0.05894 1.789442,0.05894 0.201954,0 0.464284,-0.07071 0.78714,-0.211313 0.325723,-0.141504 0.486396,-0.493793 0.486396,-1.056866 0,-3.060035 -0.03834,-6.110637 -0.116448,-9.151504 -0.07811,-3.039357 -0.116448,-6.0891283 -0.116448,-9.1496921 0,-0.6450322 0.190181,-1.0474321 0.573412,-1.2081053 0.381721,-0.1621826 0.714841,-0.2408966 0.996415,-0.2408966 1.167428,0 1.982491,-0.019999 2.445342,-0.061281 0.46285,-0.039244 0.695747,-0.2181804 0.695747,-0.5359798 0,-0.2378778 -0.0929,-0.3970416 -0.272669,-0.4757556 C 70.175691,1.8748726 69.86325,1.7958568 69.421003,1.7157088 67.286668,1.3973058 65.610732,1.1201841 64.391759,0.8814007 63.171277,0.6435229 62.419531,0.5247349 62.135014,0.5247349 c -0.232897,0 -0.369949,0.089883 -0.408287,0.2711596 -0.03977,0.1822573 -0.05894,0.4118335 -0.05894,0.6943134 l 0,1.3899853 c 0,0.4819441 -0.14007,0.7236708 -0.421569,0.7236708 -0.243236,0 -0.585185,-0.1827101 -1.027357,-0.5444323 C 59.776612,2.6974076 59.201766,2.2846685 58.497189,1.821818 57.792612,1.3589676 56.967209,0.9404173 56.020905,0.564507 55.074601,0.18867213 53.998566,0 52.788423,0" /><path
       inkscape:connector-curvature="0"
       id="path18"
       style="fill:#ffffff;fill-opacity:1;fill-rule:nonzero;stroke:none"
       d="m 75.641674,35.48417 c 0,0.806008 -0.152447,1.378816 -0.454323,1.7222 -0.302177,0.341873 -0.644202,0.584128 -1.027433,0.725255 -0.381721,0.140372 -0.72518,0.252066 -1.025848,0.332063 -0.302177,0.07924 -0.452586,0.261877 -0.452586,0.544131 0,0.199992 0.100298,0.351684 0.300743,0.452058 0.201955,0.100374 0.524735,0.231689 0.966907,0.393947 l 4.123392,1.569752 c 0.162258,0.07698 0.323761,0.116222 0.486019,0.116222 0.162258,0 0.343383,0 0.547149,0 0.162258,0 0.31546,-0.07094 0.455077,-0.212067 0.143391,-0.141127 0.214332,-0.432436 0.214332,-0.875439 l 0,-24.846081 c 0,-0.644127 0.181125,-0.966303 0.541866,-0.966303 0.08151,0 0.393948,0.129655 0.936569,0.391457 0.543375,0.262405 1.177314,0.604354 1.902569,1.027357 0.723747,0.423079 1.497302,0.896193 2.322932,1.4204 0.825629,0.524734 1.581827,1.027357 2.264065,1.511414 0.685257,0.48202 1.25882,0.916796 1.721445,1.298593 0.463378,0.382325 0.694313,0.674465 0.694313,0.877023 0,0.400966 -0.12075,0.713407 -0.360741,0.935437 -0.24301,0.221652 -0.502623,0.402928 -0.785631,0.544432 -0.281499,0.14007 -0.54413,0.281574 -0.784121,0.421569 -0.243765,0.141504 -0.363005,0.333119 -0.363005,0.574922 0,0.162107 0.08981,0.302101 0.271687,0.423003 0.181126,0.120901 0.371307,0.181276 0.572809,0.181276 0.644504,0 1.378816,-0.0197 2.20369,-0.05894 0.82412,-0.03834 1.639184,-0.05751 2.445946,-0.05751 0.76299,0 1.559186,0.01917 2.384816,0.05751 0.824874,0.03924 1.540319,0.05894 2.144824,0.05894 0.281499,0 0.541867,-0.04121 0.784122,-0.120826 0.2415,-0.08053 0.36225,-0.281574 0.36225,-0.602845 0,-0.161277 -0.110184,-0.312517 -0.331308,-0.453115 -0.222633,-0.140976 -0.494321,-0.272141 -0.815064,-0.392966 -0.323006,-0.120901 -0.655069,-0.231463 -0.996943,-0.33078 -0.343384,-0.100223 -0.614317,-0.191616 -0.815064,-0.272141 -0.443757,-0.201879 -1.298819,-0.654466 -2.565941,-1.358439 -1.269386,-0.703672 -2.576506,-1.457455 -3.925135,-2.262255 -1.349383,-0.805705 -2.547073,-1.558884 -3.592317,-2.263461 -1.046753,-0.704049 -1.569752,-1.136486 -1.569752,-1.297159 0,-0.201955 0.06037,-0.372363 0.181125,-0.512962 0.119241,-0.141504 0.221124,-0.252066 0.301876,-0.33161 L 95.351874,4.3733444 c 0.604505,-0.5630731 1.196935,-0.9846421 1.781064,-1.2676503 0.584884,-0.2815743 1.098072,-0.5129618 1.54032,-0.6942379 0.442247,-0.1813517 0.793932,-0.3316856 1.056564,-0.451983 0.262631,-0.1205237 0.392438,-0.2821025 0.392438,-0.4825478 0,-0.4023999 -0.523754,-0.6028452 -1.570507,-0.6028452 -0.64375,0 -1.348629,0.038867 -2.113128,0.1158447 -0.765254,0.077205 -1.609751,0.1164484 -2.535753,0.1164484 -0.804498,0 -1.571262,-0.039244 -2.295008,-0.1164484 -0.725256,-0.076978 -1.449002,-0.1158447 -2.172748,-0.1158447 -0.64375,0 -1.106374,0.030942 -1.387872,0.089883 -0.283009,0.060451 -0.421871,0.2299536 -0.421871,0.5114524 0,0.2815743 0.159239,0.4716803 0.480736,0.5725067 0.322252,0.099694 0.744123,0.1910871 1.267122,0.2721407 0.324516,0.038867 0.59394,0.1391646 0.816573,0.2997623 0.221124,0.1601449 0.332063,0.341421 0.332063,0.5427719 0,0.1995397 -0.221124,0.5217917 -0.663371,0.9636618 l -9.116637,8.613487 c -0.24301,0.240292 -0.42489,0.361118 -0.54564,0.361118 -0.281499,0 -0.421116,-0.101656 -0.421116,-0.301573 l 0,-8.5527347 c 0,-0.6833704 0.150183,-1.1550507 0.450549,-1.4164748 0.30263,-0.2608958 0.59394,-0.4310026 0.876948,-0.5100185 0.482246,-0.1621826 0.89657,-0.2721407 1.238444,-0.3325158 0.340364,-0.05962 0.513188,-0.2305573 0.513188,-0.5121316 0,-0.2408211 -0.152447,-0.4008905 -0.452813,-0.4819441 -0.303385,-0.078714 -0.614317,-0.1193917 -0.935814,-0.1193917 -0.725256,0 -1.412022,0.038867 -2.059545,0.1158447 -0.645259,0.077205 -1.313158,0.1164484 -2.001434,0.1164484 -0.731293,0 -1.510131,-0.039244 -2.336666,-0.1164484 -0.825479,-0.076978 -1.500547,-0.1158447 -2.023848,-0.1158447 -0.201955,0 -0.493793,0.030942 -0.877024,0.089883 -0.381797,0.060451 -0.573412,0.2319913 -0.573412,0.5129618 0,0.2830082 0.100222,0.473718 0.302177,0.5748462 0.201955,0.099317 0.46436,0.1907098 0.785631,0.2697257 0.4024,0.122335 0.784197,0.2226331 1.146824,0.3030829 0.361119,0.080148 0.683899,0.201049 0.966907,0.3617222 0.281575,0.1615788 0.492359,0.4038338 0.632354,0.7260858 0.141655,0.3219501 0.214105,0.8054036 0.214105,1.4495302 l 0,30.3222514" /><path
       inkscape:connector-curvature="0"
       id="path20"
       style="fill:#ffffff;fill-opacity:1;fill-rule:nonzero;stroke:none"
       d="m 109.88114,16.943587 c 1.32825,0 2.39538,0.04958 3.19988,0.150334 0.80525,0.100298 1.43013,0.272141 1.87238,0.512962 0.44225,0.241726 0.73431,0.543375 0.87544,0.905098 0.14188,0.362552 0.21055,0.823969 0.21055,1.388476 0,1.046526 -0.42262,1.920606 -1.26712,2.624278 -0.846,0.704049 -1.91238,1.056337 -3.20063,1.056337 -1.086,0 -2.06332,-0.232368 -2.92819,-0.694313 -0.86563,-0.46285 -1.58938,-1.016414 -2.17275,-1.658805 -0.58564,-0.643599 -1.0377,-1.308328 -1.35919,-1.992303 -0.3215,-0.683898 -0.48376,-1.267046 -0.48376,-1.748688 0,-0.120901 0.0309,-0.212294 0.0898,-0.272141 0.0604,-0.06045 0.26263,-0.111996 0.6045,-0.150334 0.34188,-0.04128 0.86563,-0.07132 1.56976,-0.09139 0.70487,-0.01917 1.70106,-0.02951 2.98932,-0.02951 z m -5.77639,-1.805064 c -0.0785,-0.201879 -0.11622,-0.484887 -0.11622,-0.847213 0,-0.363534 0,-0.788046 0,-1.271499 0,-1.292706 0.11018,-2.542621 0.33131,-3.7527645 0.22112,-1.2107467 0.64299,-2.2802913 1.26787,-3.2074261 0.62338,-0.9277386 1.50938,-1.6853704 2.65575,-2.2705558 1.14713,-0.5860911 2.64745,-0.8779292 4.4987,-0.8779292 1.1675,0 2.07238,0.1202974 2.71839,0.3625524 0.64375,0.2418022 1.14637,0.5124335 1.50938,0.815139 0.36074,0.3021773 0.64224,0.5831478 0.84449,0.8446474 0.19999,0.2623297 0.42263,0.3929663 0.66488,0.3929663 0.36074,0 0.54338,-0.1606732 0.54338,-0.4820195 0,-0.1217313 -0.16,-0.4333422 -0.483,-0.9368703 -0.3215,-0.5026226 -0.84601,-1.048036 -1.56975,-1.6338252 C 116.24467,1.6877099 115.32923,1.1614656 114.2221,0.6971812 113.11498,0.23289687 111.77691,0 110.20716,0 c -3.34176,0 -5.92279,1.0995811 -7.74159,3.2958002 -1.8188,2.1978038 -2.728202,5.1899928 -2.728202,8.9805668 0,1.411192 0.221124,2.871892 0.663372,4.384212 0.44225,1.51232 1.11392,2.881702 2.01879,4.112448 0.90563,1.229388 2.04219,2.247916 3.40968,3.054149 1.36524,0.805706 2.99385,1.209615 4.88359,1.209615 1.72899,0 3.18479,-0.322252 4.37191,-0.966379 1.18637,-0.643522 2.1403,-1.417984 2.86405,-2.323006 0.72374,-0.905098 1.24674,-1.841063 1.56824,-2.807441 0.3215,-0.964568 0.483,-1.770802 0.483,-2.413494 0,-0.563073 -0.0717,-0.935965 -0.21056,-1.116411 -0.14112,-0.181276 -0.47168,-0.271537 -0.99468,-0.271537 l -14.69001,0" /></g></svg>