<svg xmlns="http://www.w3.org/2000/svg" viewBox="0 0 222.4 125.9"><defs><style>.cls-1{fill:#fff;}</style></defs><title>Asset 1</title><g id="Layer_2" data-name="Layer 2"><g id="Layer_1-2" data-name="Layer 1"><path class="cls-1" d="M13.9,74.4c-1.6,0-3.4.1-5.3.2a44,44,0,0,1-4.8.3,5.74,5.74,0,0,1-1.2-.1.91.91,0,0,1-.8-1,1.88,1.88,0,0,1,.8-1.3A8.15,8.15,0,0,1,6,71.4,11.63,11.63,0,0,0,7.8,71a3.91,3.91,0,0,0,1.6-1,5.28,5.28,0,0,0,1.2-2.1,12.94,12.94,0,0,0,.4-3.8V11.3a1.41,1.41,0,0,0-.8-1.2,8,8,0,0,0-2-.6,19.48,19.48,0,0,0-2.5-.2,16.59,16.59,0,0,1-2.4-.2A10.31,10.31,0,0,1,.8,8.8a.91.91,0,0,1-.8-1A1.61,1.61,0,0,1,.5,6.7a3.38,3.38,0,0,1,1.2-.6,6.75,6.75,0,0,1,1.4-.2H14.6q4.2,0,8.4-.3t9.6-.3A59.46,59.46,0,0,1,49.2,7.5a37.52,37.52,0,0,1,13.5,6.9,32.18,32.18,0,0,1,9.1,12,42.17,42.17,0,0,1,3.4,17.4,26,26,0,0,1-2.8,11.9,29.47,29.47,0,0,1-7.5,9.7,36.61,36.61,0,0,1-11,6.6,37.6,37.6,0,0,1-13.5,2.4H13.9m6.7-14a9.67,9.67,0,0,0,4.5,8.5A16.17,16.17,0,0,0,29.7,71a23.33,23.33,0,0,0,5.3.7,22.09,22.09,0,0,0,5.3-.7,29.1,29.1,0,0,0,6.3-2.1,31.34,31.34,0,0,0,6.5-3.8,28.46,28.46,0,0,0,5.8-5.7,29.89,29.89,0,0,0,4.2-7.7,31,31,0,0,0,1.6-10.1,31.1,31.1,0,0,0-1.6-10.4,30.3,30.3,0,0,0-4.3-8.4,31.43,31.43,0,0,0-6.2-6.4,40.66,40.66,0,0,0-7.4-4.5,31.12,31.12,0,0,0-7.8-2.6A32.79,32.79,0,0,0,30,8.5a50.41,50.41,0,0,0-5.3.4,9.59,9.59,0,0,0-2.8.8,1.84,1.84,0,0,0-1.1,1.2,6,6,0,0,0-.2,1.2Z"/><path class="cls-1" d="M98,76.5a18.21,18.21,0,0,1-6.6-1.1,8.83,8.83,0,0,1-4.1-3.2,13.25,13.25,0,0,1-2.1-5,32,32,0,0,1-.6-6.5c0-1.7,0-3.6.1-5.7s.1-4.2.1-6.3,0-4.3.1-6.3.1-3.9.1-5.5a1.62,1.62,0,0,0-1.1-1.6c-.7-.2-1.5-.4-2.1-.6-1.3-.4-2.2-.7-2.7-.8s-.7-.5-.7-.8a.88.88,0,0,1,.8-.9,11.52,11.52,0,0,1,2-.1,19.27,19.27,0,0,1,2.4.1,19.27,19.27,0,0,0,2.4.1,20.9,20.9,0,0,0,2.5-.1,5.11,5.11,0,0,1,2.2-.3,1.91,1.91,0,0,1,1.4.4,3.42,3.42,0,0,1,.3,1.7c0,5,0,10-.1,15s-.1,10-.1,15a6.46,6.46,0,0,0,2.3,5.3,10.46,10.46,0,0,0,6.5,1.8,23.24,23.24,0,0,0,7.3-.9,10,10,0,0,0,4-2.3,5.91,5.91,0,0,0,1.7-3.2,14.47,14.47,0,0,0,.4-3.5c0-4,0-8,.1-12s.1-8,.1-12a1.88,1.88,0,0,0-.2-.8,1.83,1.83,0,0,0-.8-.6c-.4-.1-1-.3-1.7-.5s-1.8-.5-3.1-.8c-.4-.1-1.1-.4-2-.7s-1.3-.7-1.3-1.1.3-.6.8-.7a8.81,8.81,0,0,1,1.7-.2,28.1,28.1,0,0,1,2.9.1,27.15,27.15,0,0,0,2.9.1c1.1,0,2.2,0,3.3-.1s2.2-.1,3.3-.1a3.36,3.36,0,0,1,1.5.4c.6.3.9.9.9,2,0,5.7-.1,11.3-.2,17s-.2,11.3-.2,17c0,1.2.4,1.9,1.1,2.2a4.54,4.54,0,0,0,1.8.4c2.2,0,3.7,0,4.5.1s1.3.4,1.3,1a1.05,1.05,0,0,1-.5.9,8.51,8.51,0,0,1-1.7.4q-6,.9-9.3,1.5c-2.3.4-3.7.7-4.2.7a.79.79,0,0,1-.8-.5,4.89,4.89,0,0,1-.1-1.3V71c0-.9-.3-1.3-.8-1.3a3.44,3.44,0,0,0-1.9,1c-.8.7-1.9,1.4-3.2,2.3a21.92,21.92,0,0,1-4.6,2.3,14.61,14.61,0,0,1-6,1.2"/><path class="cls-1" d="M140.4,10.7a5.15,5.15,0,0,0-.8-3.2,4.63,4.63,0,0,0-1.9-1.3,8.24,8.24,0,0,0-1.9-.6.89.89,0,0,1-.8-1,.76.76,0,0,1,.6-.8c.4-.2,1-.4,1.8-.7L145,.2a2.92,2.92,0,0,1,.9-.2h1a.91.91,0,0,1,.8.4,2.2,2.2,0,0,1,.4,1.6V47.9c0,1.2.3,1.8,1,1.8a6.15,6.15,0,0,0,1.7-.7c1-.5,2.2-1.1,3.5-1.9s2.8-1.7,4.3-2.6,2.9-1.9,4.2-2.8,2.3-1.7,3.2-2.4,1.3-1.3,1.3-1.6a2.06,2.06,0,0,0-.7-1.7,7.84,7.84,0,0,0-1.5-1c-.5-.3-1-.5-1.5-.8a1.36,1.36,0,0,1-.7-1.1,1,1,0,0,1,.5-.8,2,2,0,0,1,1.1-.3c1.2,0,2.6,0,4.1.1s3,.1,4.5.1,2.9,0,4.4-.1,2.9-.1,4-.1a7.72,7.72,0,0,1,1.5.2,1,1,0,0,1,.7,1.1.94.94,0,0,1-.6.8,5.23,5.23,0,0,1-1.5.7l-1.8.6c-.6.2-1.1.4-1.5.5-.8.4-2.4,1.2-4.8,2.5s-4.8,2.7-7.3,4.2-4.7,2.9-6.7,4.2-2.9,2.1-2.9,2.4a1.94,1.94,0,0,0,.9,1.6l19.4,17.6a17.19,17.19,0,0,0,3.3,2.4c1.1.5,2,1,2.9,1.3s1.5.6,2,.8a.93.93,0,0,1,.7.9c0,.7-1,1.1-2.9,1.1-1.2,0-2.5-.1-3.9-.2s-3-.2-4.7-.2c-1.5,0-2.9.1-4.3.2s-2.7.2-4,.2a14.23,14.23,0,0,1-2.6-.2.88.88,0,0,1-.8-.9,1.15,1.15,0,0,1,.9-1.1,11.05,11.05,0,0,1,2.4-.5,3.39,3.39,0,0,0,1.5-.6,1.22,1.22,0,0,0,.6-1q0-.6-1.2-1.8l-16.9-16c-.5-.4-.8-.7-1-.7-.5,0-.8.2-.8.6V68.6a3.5,3.5,0,0,0,.8,2.6,3.76,3.76,0,0,0,1.6.9,15.83,15.83,0,0,0,2.3.6c.6.1,1,.4,1,1,0,.4-.3.7-.8.9a9.85,9.85,0,0,1-1.7.2c-1.3,0-2.6-.1-3.8-.2s-2.4-.2-3.7-.2-2.8.1-4.3.2-2.8.2-3.8.2a13.7,13.7,0,0,1-1.6-.2c-.7-.1-1.1-.4-1.1-1a1.15,1.15,0,0,1,.6-1.1,5.27,5.27,0,0,1,1.5-.5c.7-.2,1.5-.4,2.1-.6a7.51,7.51,0,0,0,1.8-.7,3.74,3.74,0,0,0,1.2-1.3,6.38,6.38,0,0,0,.4-2.7v-56"/><path class="cls-1" d="M193.2,48.4A6.27,6.27,0,0,0,193,50v2.4a40.49,40.49,0,0,0,.6,7,17.42,17.42,0,0,0,2.3,6,13.51,13.51,0,0,0,4.9,4.2,18.05,18.05,0,0,0,8.3,1.6,13.28,13.28,0,0,0,5-.7,10.34,10.34,0,0,0,2.8-1.5,12,12,0,0,0,1.6-1.6,1.55,1.55,0,0,1,1.2-.7c.7,0,1,.3,1,.9a5.38,5.38,0,0,1-.9,1.7,15.8,15.8,0,0,1-2.9,3,17.52,17.52,0,0,1-5.1,2.9,18.48,18.48,0,0,1-7.4,1.3c-6.2,0-11-2-14.4-6.1s-5.1-9.6-5.1-16.7a29.45,29.45,0,0,1,1.2-8.1,25.56,25.56,0,0,1,3.7-7.6,21.5,21.5,0,0,1,6.3-5.7,17.53,17.53,0,0,1,9.1-2.2,16.72,16.72,0,0,1,8.1,1.8,16.4,16.4,0,0,1,5.3,4.3,18,18,0,0,1,2.9,5.2,14.81,14.81,0,0,1,.9,4.5A3.69,3.69,0,0,1,222,48a2.57,2.57,0,0,1-1.8.5h-27m10.7-3.4a45.75,45.75,0,0,0,5.9-.3,9.14,9.14,0,0,0,3.5-1,2.94,2.94,0,0,0,1.6-1.7,6.46,6.46,0,0,0,.4-2.6,6.15,6.15,0,0,0-2.4-4.9,9,9,0,0,0-5.9-2,10.79,10.79,0,0,0-5.4,1.3,15.8,15.8,0,0,0-4,3.1,14.21,14.21,0,0,0-2.5,3.7,8.24,8.24,0,0,0-.9,3.2.76.76,0,0,0,.2.5,3,3,0,0,0,1.1.3c.6.1,1.6.1,2.9.2S201.5,45.1,203.9,45.1Z"/><path class="cls-1" d="M11.6,90.2v12.5H9.4V90.2H5.2V88H16v2.2Z"/><path class="cls-1" d="M26.8,96.7l3,6H27.3l-2.9-5.8H21.1v5.8H18.9V88h6.4c2.6,0,4.7,1.4,4.7,4.4A4,4,0,0,1,26.8,96.7Zm-1.5-6.6H21v4.7h4.3a2.24,2.24,0,0,0,2.5-2.4A2.21,2.21,0,0,0,25.3,90.1Z"/><path class="cls-1" d="M33.5,102.7V88h2.2v14.7Z"/><path class="cls-1" d="M48.7,102.7l-5.9-9.2a12.48,12.48,0,0,1-1.1-1.8v11H39.6V88h2.2l5.6,9c.4.6,1,1.7,1.2,2.1V88h2.1v14.7Z"/><path class="cls-1" d="M54.7,102.7V88h2.2v14.7Z"/><path class="cls-1" d="M66.4,90.2v12.5H64.2V90.2H59.9V88H70.7v2.2Z"/><path class="cls-1" d="M80,96.9v5.8H77.8V96.9L72.5,88h2.6l2.3,4.1c.5.9,1.3,2.4,1.5,2.9.3-.5,1-2,1.5-2.9L82.7,88h2.5Z"/><path class="cls-1" d="M99.3,102.9c-3.8,0-6.2-3.1-6.2-7.6s2.4-7.6,6.2-7.6a5.27,5.27,0,0,1,5,2.8l-2,1.2a3.2,3.2,0,0,0-3-1.8c-2.6,0-3.9,2.1-3.9,5.4s1.4,5.4,3.9,5.4a3.39,3.39,0,0,0,3.2-1.8l1.8,1.2A5.48,5.48,0,0,1,99.3,102.9Z"/><path class="cls-1" d="M112.5,102.9c-3.7,0-6.2-3-6.2-7.6s2.6-7.6,6.3-7.6,6.3,3,6.3,7.6S116.3,102.9,112.5,102.9Zm0-12.9c-2.3,0-4,2-4,5.4s1.7,5.4,4.1,5.4,4-2,4-5.4S114.9,90,112.5,90Z"/><path class="cls-1" d="M122,102.7V88h2.2v12.5h7.3v2.2Z"/><path class="cls-1" d="M134.5,102.7V88h2.2v12.5H144v2.2Z"/><path class="cls-1" d="M146.9,102.7V88h9.5v2.1h-7.3v3.6h4.2v2.1h-4.2v4.6h7.6v2.1h-9.8Z"/><path class="cls-1" d="M164.7,102.9c-3.8,0-6.2-3.1-6.2-7.6s2.4-7.6,6.2-7.6a5.27,5.27,0,0,1,5,2.8l-1.9,1.2a3.26,3.26,0,0,0-3.1-1.7c-2.6,0-4,2.1-4,5.4s1.4,5.4,4,5.4a3,3,0,0,0,3.3-3.3v-.1h-2.4V95.3h4.6V97C170.3,100.7,168,102.9,164.7,102.9Z"/><path class="cls-1" d="M173.4,102.7V88h9.5v2.1h-7.3v3.6h4.2v2.1h-4.2v4.6h7.6v2.1h-9.8Z"/><path class="cls-1" d="M197.5,102.9c-3.7,0-6.2-3-6.2-7.6s2.6-7.6,6.3-7.6,6.3,3,6.3,7.6S201.3,102.9,197.5,102.9Zm0-12.9c-2.3,0-4,2-4,5.4s1.7,5.4,4.1,5.4,4-2,4-5.4S199.8,90,197.5,90Z"/><path class="cls-1" d="M209.1,90.2V94h4.2v2.2h-4.2v6.5h-2.2V88h9.5v2.2Z"/><path class="cls-1" d="M17.1,125.7l-1.2-3.5H10l-1.2,3.5H6.5L11.8,111h2.3l5.4,14.7ZM14,116.9c-.4-1.1-.9-2.8-1.1-3.4-.2.6-.7,2.3-1.1,3.4l-1.2,3.4h4.5Z"/><path class="cls-1" d="M30.3,119.7l3,6H30.8l-2.9-5.8H24.6v5.8H22.4V111h6.4c2.6,0,4.7,1.4,4.7,4.4A4,4,0,0,1,30.3,119.7Zm-1.5-6.6H24.5v4.7h4.3a2.24,2.24,0,0,0,2.5-2.4A2.21,2.21,0,0,0,28.8,113.1Z"/><path class="cls-1" d="M42,113.2v12.5H39.8V113.2H35.5V111H46.3v2.2Z"/><path class="cls-1" d="M53.1,125.9a6.61,6.61,0,0,1-5.2-2.4l1.6-1.5a5.17,5.17,0,0,0,3.8,1.7c2.1,0,3-.7,3-2.1,0-1.1-.9-1.7-3.3-2.4-3.1-.9-4.6-1.7-4.6-4.3s2.1-4.1,4.9-4.1a6.41,6.41,0,0,1,4.8,2l-1.6,1.6a4.6,4.6,0,0,0-3.4-1.4c-1.7,0-2.5.8-2.5,1.8s.7,1.5,3.2,2.3c2.9.9,4.7,1.8,4.7,4.4S56.8,125.9,53.1,125.9Z"/><path class="cls-1" d="M77.2,125.7,76,122.2H70.1l-1.2,3.5H66.6L71.9,111h2.3l5.4,14.7Zm-3.1-8.8c-.4-1.1-.9-2.8-1.1-3.4-.2.6-.7,2.3-1.1,3.4l-1.2,3.4h4.5Z"/><path class="cls-1" d="M91.5,125.7l-5.9-9.2a12.48,12.48,0,0,1-1.1-1.8v11H82.4V111h2.3l5.6,9c.4.6,1,1.7,1.2,2.1V111h2.1v14.7Z"/><path class="cls-1" d="M101.4,125.7h-4V111h4c3.9,0,7.2,2.2,7.2,7.3S105.3,125.7,101.4,125.7Zm0-12.5H99.6v10.4h1.8c3.5,0,4.9-2.1,4.9-5.2S104.9,113.2,101.4,113.2Z"/><path class="cls-1" d="M121.8,125.9a6.61,6.61,0,0,1-5.2-2.4l1.6-1.5a5.17,5.17,0,0,0,3.8,1.7c2.1,0,3-.7,3-2.1,0-1.1-.9-1.7-3.3-2.4-3.1-.9-4.6-1.7-4.6-4.3s2.1-4.1,4.8-4.1a6.41,6.41,0,0,1,4.8,2l-1.6,1.6a4.6,4.6,0,0,0-3.4-1.4c-1.7,0-2.5.8-2.5,1.8s.7,1.5,3.2,2.3c2.9.9,4.7,1.8,4.7,4.4S125.5,125.9,121.8,125.9Z"/><path class="cls-1" d="M135.9,125.9c-3.8,0-6.2-3.1-6.2-7.6s2.4-7.6,6.2-7.6a5.27,5.27,0,0,1,5,2.8l-2,1.2a3.2,3.2,0,0,0-3-1.8c-2.6,0-3.9,2.1-3.9,5.4s1.4,5.4,3.9,5.4a3.39,3.39,0,0,0,3.2-1.8l1.8,1.2A5.37,5.37,0,0,1,135.9,125.9Z"/><path class="cls-1" d="M144.3,125.7V111h2.2v14.7Z"/><path class="cls-1" d="M150.4,125.7V111h9.5v2.1h-7.3v3.6h4.2v2.1h-4.2v4.6h7.6v2.1h-9.8Z"/><path class="cls-1" d="M172.4,125.7l-5.9-9.2a12.48,12.48,0,0,1-1.1-1.8v11h-2.1V111h2.2l5.6,9c.4.6,1,1.7,1.2,2.1V111h2.1v14.7Z"/><path class="cls-1" d="M183.8,125.9c-3.8,0-6.2-3.1-6.2-7.6s2.4-7.6,6.2-7.6a5.27,5.27,0,0,1,5,2.8l-2,1.2a3.2,3.2,0,0,0-3-1.8c-2.6,0-3.9,2.1-3.9,5.4s1.4,5.4,3.9,5.4a3.39,3.39,0,0,0,3.2-1.8l1.8,1.2A5.37,5.37,0,0,1,183.8,125.9Z"/><path class="cls-1" d="M192.1,125.7V111h9.5v2.1h-7.3v3.6h4.2v2.1h-4.2v4.6h7.6v2.1h-9.8Z"/><path class="cls-1" d="M209.1,125.9a6.61,6.61,0,0,1-5.2-2.4l1.6-1.5a5.17,5.17,0,0,0,3.8,1.7c2.1,0,3-.7,3-2.1,0-1.1-.9-1.7-3.3-2.4-3.1-.9-4.6-1.7-4.6-4.3s2.1-4.1,4.8-4.1a6.41,6.41,0,0,1,4.8,2l-1.6,1.6A4.6,4.6,0,0,0,209,113c-1.7,0-2.5.8-2.5,1.8s.7,1.5,3.2,2.3c2.9.9,4.7,1.8,4.7,4.4S212.8,125.9,209.1,125.9Z"/></g></g></svg>