<?xml version="1.0" encoding="UTF-8" standalone="no"?>
<svg
   xmlns:dc="http://purl.org/dc/elements/1.1/"
   xmlns:cc="http://creativecommons.org/ns#"
   xmlns:rdf="http://www.w3.org/1999/02/22-rdf-syntax-ns#"
   xmlns:svg="http://www.w3.org/2000/svg"
   xmlns="http://www.w3.org/2000/svg"
   xmlns:sodipodi="http://sodipodi.sourceforge.net/DTD/sodipodi-0.dtd"
   xmlns:inkscape="http://www.inkscape.org/namespaces/inkscape"
   viewBox="0 0 253.00001 72.45"
   id="svg2"
   version="1.1"
   inkscape:version="1.0.1 (0767f8302a, 2020-10-17)"
   sodipodi:docname="logo.svg"
   width="253"
   height="72.449997">
  <metadata
     id="metadata63">
    <rdf:RDF>
      <cc:Work
         rdf:about="">
        <dc:format>image/svg+xml</dc:format>
        <dc:type
           rdf:resource="http://purl.org/dc/dcmitype/StillImage" />
        <dc:title>logo</dc:title>
      </cc:Work>
    </rdf:RDF>
  </metadata>
  <sodipodi:namedview
     pagecolor="#ffffff"
     bordercolor="#666666"
     borderopacity="1"
     objecttolerance="10"
     gridtolerance="10"
     guidetolerance="10"
     inkscape:pageopacity="0"
     inkscape:pageshadow="2"
     inkscape:window-width="2488"
     inkscape:window-height="1016"
     id="namedview61"
     showgrid="false"
     inkscape:zoom="5.0350736"
     inkscape:cx="173.19281"
     inkscape:cy="22.694906"
     inkscape:window-x="72"
     inkscape:window-y="27"
     inkscape:window-maximized="1"
     inkscape:current-layer="svg2"
     inkscape:document-rotation="0" />
  <defs
     id="defs4">
    <style
       id="style6">.cls-1{fill:#fff;}</style>
  </defs>
  <title
     id="title8">logo</title>
  <g
     aria-label="PROGRAM in
LITERATURE"
     id="text4191"
     style="font-style:normal;font-variant:normal;font-weight:600;font-stretch:normal;line-height:0%;font-family:'Open Sans';-inkscape-font-specification:'Open Sans Semi-Bold';letter-spacing:0px;word-spacing:0px;fill:#ffffff;fill-opacity:1;stroke:none;stroke-width:1px;stroke-linecap:butt;stroke-linejoin:miter;stroke-opacity:1"
     transform="matrix(1.0000019,0,0,1,-1.6028848,-0.8718678)">
    <path
       d="m 19.527491,10.115862 q 0,4.193115 -2.746582,6.427002 -2.746582,2.233887 -7.8186038,2.233887 H 6.1791021 V 28.79262 H 1.8028814 V 2.0226002 h 7.7087402 q 5.0170894,0 7.5073244,2.0507812 2.508545,2.0507813 2.508545,6.0424806 z M 6.1791021,15.096331 h 2.3254394 q 3.3691405,0 4.9438475,-1.171875 1.574707,-1.171875 1.574707,-3.66211 0,-2.3071286 -1.409912,-3.4423825 -1.409912,-1.135254 -4.3945312,-1.135254 H 6.1791021 Z"
       style="font-size:37.5px;line-height:1.14;letter-spacing:3.33px;fill:#ffffff"
       id="path13" />
    <path
       d="m 32.580391,14.473772 h 3.039551 q 3.057861,0 4.431152,-1.135254 1.373291,-1.135254 1.373291,-3.3691405 0,-2.2705078 -1.483154,-3.2592773 -1.483154,-0.9887696 -4.467774,-0.9887696 h -2.893066 z m 0,3.625488 V 28.79262 H 28.20417 V 2.0226002 h 7.562256 q 5.181885,0 7.672119,1.9409179 2.490235,1.940918 2.490235,5.859375 0,4.9987789 -5.200196,7.1228029 L 48.29084,28.79262 H 43.310372 L 36.90168,18.09926 Z"
       style="font-size:37.5px;line-height:1.14;letter-spacing:3.33px;fill:#ffffff"
       id="path15" />
    <path
       d="m 79.251455,15.370989 q 0,6.536865 -3.277587,10.162353 -3.259278,3.625489 -9.246827,3.625489 -6.060791,0 -9.320068,-3.588868 -3.240967,-3.607177 -3.240967,-10.235595 0,-6.6284182 3.259278,-10.1806643 3.277587,-3.5522461 9.338378,-3.5522461 5.969239,0 9.228516,3.6071777 3.259277,3.6071778 3.259277,10.1623537 z m -20.43457,0 q 0,4.943848 1.99585,7.507324 1.995849,2.545166 5.914306,2.545166 3.900147,0 5.877686,-2.526855 1.99585,-2.526856 1.99585,-7.525635 0,-4.925537 -1.97754,-7.4707033 -1.959228,-2.545166 -5.859375,-2.545166 -3.936767,0 -5.950927,2.545166 -1.99585,2.5451663 -1.99585,7.4707033 z"
       style="font-size:37.5px;line-height:1.14;letter-spacing:3.33px;fill:#ffffff"
       id="path17" />
    <path
       d="m 99.280672,14.272356 h 9.851078 v 13.439941 q -2.417,0.787354 -4.65088,1.116944 -2.21558,0.32959 -4.797366,0.32959 -6.079101,0 -9.375,-3.588868 -3.295898,-3.607177 -3.295898,-10.162353 0,-6.4636231 3.717041,-10.1074219 3.717041,-3.6621094 10.235593,-3.6621094 4.19312,0 7.94678,1.6113281 l -1.53809,3.6437988 q -3.25927,-1.5014648 -6.51855,-1.5014648 -4.284669,0 -6.774903,2.6916504 -2.490234,2.6916508 -2.490234,7.3608398 0,4.907227 2.233886,7.470703 2.252197,2.545166 6.463621,2.545166 2.12403,0 4.54102,-0.531006 v -6.903076 h -5.548098 z"
       style="font-size:37.5px;line-height:1.14;letter-spacing:3.33px;fill:#ffffff"
       id="path19" />
    <path
       d="m 123.28328,14.473772 h 3.03955 q 3.05786,0 4.43115,-1.135254 1.3733,-1.135254 1.3733,-3.3691405 0,-2.2705078 -1.48316,-3.2592773 -1.48315,-0.9887696 -4.46777,-0.9887696 h -2.89307 z m 0,3.625488 v 10.69336 h -4.37622 V 2.0226002 h 7.56226 q 5.18188,0 7.67212,1.9409179 2.49023,1.940918 2.49023,5.859375 0,4.9987789 -5.2002,7.1228029 l 7.56226,11.846924 h -4.98047 l -6.40869,-10.69336 z"
       style="font-size:37.5px;line-height:1.14;letter-spacing:3.33px;fill:#ffffff"
       id="path21" />
    <path
       d="m 162.79492,28.79262 -2.67334,-7.434082 h -10.2356 l -2.61841,7.434082 h -4.61426 L 152.66918,1.9127369 h 4.76075 L 167.4458,28.79262 Z m -3.82691,-11.206055 -2.50854,-7.287598 q -0.27466,-0.7324215 -0.76905,-2.3071285 -0.47607,-1.5747071 -0.65918,-2.307129 -0.49438,2.2521973 -1.44653,4.9255375 l -2.41699,6.976318 z"
       style="font-size:37.5px;line-height:1.14;letter-spacing:3.33px;fill:#ffffff"
       id="path23" />
    <path
       d="M 185.91862,28.79262 178.15495,6.435442 h -0.14649 q 0.31128,4.980469 0.31128,9.338379 V 28.79262 h -3.97339 V 2.0226002 h 6.17066 l 7.43408,21.2951658 h 0.10986 l 7.65381,-21.2951658 h 6.18897 V 28.79262 H 197.6923 V 15.554094 q 0,-1.995849 0.0916,-5.200195 0.10987,-3.2043457 0.18311,-3.8818359 h -0.14649 L 189.78214,28.79262 Z"
       style="font-size:37.5px;line-height:1.14;letter-spacing:3.33px;fill:#ffffff"
       id="path25" />
    <path
       d="m 226.01368,28.79262 h -3.07617 l 4.28467,-20.0683597 h 3.07617 z m 2.06909,-25.1953128 q 0,-1.0253906 0.58594,-1.6662598 0.58594,-0.6591796 1.51978,-0.6591796 1.61132,0 1.61132,1.6479492 0,1.00708 -0.62255,1.7028808 -0.60425,0.6958008 -1.40992,0.6958008 -0.73242,0 -1.20849,-0.4394531 -0.47608,-0.4577637 -0.47608,-1.2817383 z"
       style="font-style:italic;font-variant:normal;font-weight:normal;font-stretch:normal;font-family:'Open Sans';-inkscape-font-specification:'Open Sans Italic';fill:#ffffff"
       id="path27" />
    <path
       d="m 248.05706,28.79262 2.70996,-12.670899 q 0.36621,-1.904297 0.36621,-2.636718 0,-1.153565 -0.65918,-1.849366 -0.64086,-0.6958 -2.06909,-0.6958 -1.62964,0 -3.18603,1.098632 -1.53809,1.098633 -2.72827,3.131104 -1.17188,2.032471 -1.77613,4.925537 l -1.84936,8.69751 H 235.789 l 4.28466,-20.0683597 h 2.54517 L 242.216,12.441301 h 0.1831 q 1.75782,-2.233886 3.38745,-3.1494137 1.64795,-0.9338379 3.40577,-0.9338379 2.32544,0 3.66211,1.2817383 1.35498,1.2634273 1.35498,3.5522463 0,1.446533 -0.42115,3.295898 l -2.6184,12.304688 z"
       style="font-style:italic;font-variant:normal;font-weight:normal;font-stretch:normal;font-family:'Open Sans';-inkscape-font-specification:'Open Sans Italic';fill:#ffffff"
       id="path29" />
    <path
       d="M 1.8028814,71.542619 V 44.7726 H 6.1791021 V 67.788957 H 17.513331 v 3.753662 z"
       style="font-size:37.5px;line-height:114%;letter-spacing:3.33px;fill:#ffffff"
       id="path31" />
    <path
       d="M 25.494209,71.542619 V 44.7726 h 4.376221 v 26.770019 z"
       style="font-size:37.5px;line-height:114%;letter-spacing:3.33px;fill:#ffffff"
       id="path33" />
    <path
       d="M 49.496817,71.542619 H 45.120596 V 48.526262 H 37.247061 V 44.7726 h 20.123291 v 3.753662 h -7.873535 z"
       style="font-size:37.5px;line-height:114%;letter-spacing:3.33px;fill:#ffffff"
       id="path35" />
    <path
       d="M 79.963045,71.542619 H 64.820223 V 44.7726 h 15.142822 v 3.69873 H 69.196444 v 7.287598 h 10.089111 v 3.662109 H 69.196444 v 8.404541 h 10.766601 z"
       style="font-size:37.5px;line-height:114%;letter-spacing:3.33px;fill:#ffffff"
       id="path37" />
    <path
       d="m 93.473711,57.223772 h 3.039551 q 3.057861,0 4.431148,-1.135254 1.3733,-1.135254 1.3733,-3.369141 0,-2.270508 -1.48316,-3.259277 -1.483153,-0.98877 -4.467772,-0.98877 h -2.893067 z m 0,3.625488 V 71.542619 H 89.09749 V 44.7726 h 7.562256 q 5.181884,0 7.672124,1.940918 2.49023,1.940918 2.49023,5.859375 0,4.998779 -5.2002,7.122802 l 7.56226,11.846924 h -4.98047 L 97.795,60.84926 Z"
       style="font-size:37.5px;line-height:114%;letter-spacing:3.33px;fill:#ffffff"
       id="path39" />
    <path
       d="m 132.98535,71.542619 -2.67334,-7.434082 h -10.23559 l -2.61841,7.434082 h -4.61426 l 10.01587,-26.879883 h 4.76074 l 10.01587,26.879883 z m -3.8269,-11.206055 -2.50855,-7.287597 q -0.27465,-0.732422 -0.76904,-2.307129 -0.47607,-1.574707 -0.65918,-2.307129 -0.49438,2.252197 -1.44653,4.925537 l -2.41699,6.976318 z"
       style="font-size:37.5px;line-height:114%;letter-spacing:3.33px;fill:#ffffff"
       id="path41" />
    <path
       d="m 153.78361,71.542619 h -4.37622 V 48.526262 h -7.87354 V 44.7726 h 20.12329 v 3.753662 h -7.87353 z"
       style="font-size:37.5px;line-height:114%;letter-spacing:3.33px;fill:#ffffff"
       id="path43" />
    <path
       d="m 190.09091,44.7726 v 17.321777 q 0,2.966309 -1.28174,5.200195 -1.26343,2.215576 -3.68042,3.424073 -2.39868,1.190185 -5.74951,1.190185 -4.98047,0 -7.74536,-2.636719 -2.7649,-2.636718 -2.7649,-7.250976 V 44.7726 h 4.39453 v 16.937255 q 0,3.314209 1.53809,4.888917 1.53809,1.574707 4.72412,1.574707 6.18897,0 6.18897,-6.500245 V 44.7726 Z"
       style="font-size:37.5px;line-height:114%;letter-spacing:3.33px;fill:#ffffff"
       id="path45" />
    <path
       d="m 204.64527,57.223772 h 3.03955 q 3.05787,0 4.43116,-1.135254 1.37329,-1.135254 1.37329,-3.369141 0,-2.270508 -1.48316,-3.259277 -1.48315,-0.98877 -4.46777,-0.98877 h -2.89307 z m 0,3.625488 v 10.693359 h -4.37622 V 44.7726 h 7.56226 q 5.18188,0 7.67212,1.940918 2.49023,1.940918 2.49023,5.859375 0,4.998779 -5.20019,7.122802 l 7.56225,11.846924 h -4.98047 L 208.96656,60.84926 Z"
       style="font-size:37.5px;line-height:114%;letter-spacing:3.33px;fill:#ffffff"
       id="path47" />
    <path
       d="M 242.69207,71.542619 H 227.54925 V 44.7726 h 15.14282 v 3.69873 h -10.7666 v 7.287598 h 10.08911 v 3.662109 h -10.08911 v 8.404541 h 10.7666 z"
       style="font-size:37.5px;line-height:114%;letter-spacing:3.33px;fill:#ffffff"
       id="path49" />
  </g>
</svg>
